<?xml version="1.0" standalone="no"?>
<!DOCTYPE svg PUBLIC "-//W3C//DTD SVG 20010904//EN"
 "http://www.w3.org/TR/2001/REC-SVG-20010904/DTD/svg10.dtd">
<svg version="1.0" xmlns="http://www.w3.org/2000/svg"
 width="200.000000pt" height="200.000000pt" viewBox="0 0 200.000000 200.000000"
 preserveAspectRatio="xMidYMid meet">

<g transform="translate(0.000000,200.000000) scale(0.100000,-0.100000)"
fill="#000000" stroke="none">
<path d="M840 1983 c-338 -58 -630 -289 -754 -596 -59 -146 -71 -214 -70 -387
0 -190 15 -257 96 -427 207 -435 726 -657 1185 -507 262 86 474 269 587 509
69 146 106 297 106 436 0 82 -27 229 -58 319 -47 134 -154 303 -248 391 -229
213 -550 313 -844 262z m125 -60 c-4 -10 -12 -38 -17 -63 -5 -25 -12 -56 -15
-70 -22 -103 -16 -499 9 -579 17 -57 41 -73 67 -46 19 19 20 26 9 122 -10 94
-9 110 11 195 38 155 50 188 132 366 19 41 35 62 46 62 25 0 166 -48 187 -63
17 -13 15 -27 -39 -352 -42 -257 -66 -645 -45 -756 4 -24 13 -85 19 -135 6
-50 24 -133 40 -185 43 -142 61 -232 50 -246 -17 -20 -139 -63 -238 -83 -104
-22 -252 -26 -331 -9 l-50 11 -1 56 c0 63 -16 171 -47 337 -12 61 -26 178 -32
260 -14 188 -16 211 -37 425 -25 260 -21 348 23 447 8 17 14 40 14 51 0 12 4
24 10 27 5 3 14 25 20 48 6 23 15 58 20 77 6 19 12 45 13 57 5 33 12 37 95 49
42 6 81 12 86 13 4 0 5 -7 1 -16z m-475 -158 c0 -9 -8 -30 -17 -48 -25 -46
-25 -327 0 -372 9 -16 17 -36 17 -43 0 -7 4 -20 9 -30 22 -39 60 -172 71 -247
16 -106 60 -327 67 -338 3 -5 14 -41 24 -80 10 -40 34 -130 53 -202 40 -153
62 -283 49 -296 -12 -12 -104 20 -201 71 -210 109 -380 313 -457 545 -32 97
-44 295 -26 415 13 82 51 214 59 205 3 -3 7 -94 9 -201 1 -134 7 -213 17 -248
8 -28 17 -71 21 -96 6 -42 57 -154 140 -310 18 -36 34 -71 34 -77 1 -7 11 -13
22 -13 21 0 21 3 16 58 -4 31 -23 104 -43 162 -36 102 -37 109 -35 230 1 69 4
148 7 175 3 28 7 66 9 85 9 102 17 174 36 332 11 95 22 187 23 203 1 17 3 38
4 49 2 18 68 86 84 86 4 0 8 -7 8 -15z m1182 -122 c30 -32 72 -83 93 -113 32
-48 36 -60 31 -95 -15 -96 -44 -402 -40 -425 2 -14 6 -61 9 -105 2 -44 9 -100
14 -125 14 -63 20 -90 27 -130 4 -19 11 -43 16 -52 12 -24 -16 -77 -91 -170
-83 -106 -243 -240 -262 -221 -14 15 -47 207 -59 343 -18 207 14 533 69 720 9
32 38 141 60 230 22 84 36 126 48 145 7 11 13 27 13 37 0 28 12 22 72 -39z"/>
</g>
</svg>
